<?xml version="1.0" encoding="utf-8"?>
<!-- Generator: Adobe Illustrator 27.5.0, SVG Export Plug-In . SVG Version: 6.00 Build 0)  -->
<svg version="1.1" id="Layer_1" xmlns="http://www.w3.org/2000/svg" xmlns:xlink="http://www.w3.org/1999/xlink" x="0px" y="0px"
	 viewBox="0 0 6000 4000" style="enable-background:new 0 0 6000 4000;" xml:space="preserve">
<g>
	<rect style="fill-rule:evenodd;clip-rule:evenodd;fill:#F6F6F7;" width="6000" height="4000"/>
	<linearGradient id="SVGID_1_" gradientUnits="userSpaceOnUse" x1="-245.2548" y1="142.6609" x2="2944.7395" y2="5847.6558">
		<stop  offset="0" style="stop-color:#563996"/>
		<stop  offset="0.3609" style="stop-color:#835BA7"/>
		<stop  offset="0.7873" style="stop-color:#B380B8"/>
		<stop  offset="1" style="stop-color:#C58EBF"/>
	</linearGradient>
	<path style="fill-rule:evenodd;clip-rule:evenodd;fill:url(#SVGID_1_);" d="M355.834,1639.166
		C265,2156.666,440,2903.333,1062.202,3335s1691.608,548.333,2761.012,665H0.001V0h1173.213
		C1154.35,778.042,494.917,846.768,355.834,1639.166z"/>
	<path style="fill-rule:evenodd;clip-rule:evenodd;fill:#CBCBCB;" d="M960.178,628.292c4.428-6.116,8.811-12.273,13.153-18.465
		l0.973-1.389c4.748-6.789,9.448-13.622,14.088-20.509l0.807-1.203c4.697-6.988,9.341-14.027,13.92-21.128l0.458-0.715
		c4.607-7.156,9.151-14.369,13.628-21.651l0.325-0.526c4.44-7.231,8.811-14.529,13.115-21.892l0.806-1.378
		c4.231-7.26,8.392-14.586,12.481-21.984l0.814-1.474c4.097-7.439,8.126-14.946,12.075-22.533l0.641-1.242
		c4.004-7.72,7.937-15.511,11.778-23.395l0.268-0.557c3.841-7.893,7.594-15.874,11.265-23.942l0.397-0.863
		c3.622-7.985,7.154-16.062,10.601-24.228l0.672-1.59c3.391-8.07,6.693-16.232,9.906-24.488l0.691-1.781
		c3.209-8.296,6.33-16.684,9.353-25.176l0.507-1.438c3.077-8.689,6.062-17.474,8.935-26.379l0.137-0.432
		c2.878-8.934,5.647-17.985,8.312-27.145l0.307-1.045c2.614-9.028,5.117-18.173,7.517-27.431l0.473-1.819
		c2.363-9.185,4.619-18.488,6.763-27.908l0.417-1.851c2.14-9.487,4.175-19.088,6.086-28.823l0.295-1.53
		c1.938-9.948,3.765-20.018,5.458-30.234l0.051-0.311c1.688-10.217,3.243-20.58,4.677-31.075l0.193-1.38
		c1.4-10.338,2.666-20.822,3.81-31.439l0.213-1.97c1.119-10.54,2.11-21.221,2.968-32.047l0.171-2.209
		c0.847-10.911,1.567-21.963,2.145-33.17l0.074-1.531c0.58-11.517,1.026-23.182,1.313-35.022h395.953
		C1530.612,973.489,482.895,902.344,351.485,1665.52c1.378-8.844,2.82-17.637,4.349-26.354
		c30.406-173.221,85.675-311.86,153.684-430.881l0.444-0.771c4.565-7.976,9.189-15.86,13.866-23.665l1.327-2.208
		c4.546-7.559,9.142-15.041,13.785-22.448l1.043-1.67c4.884-7.766,9.819-15.454,14.802-23.063l0.8-1.213
		c4.813-7.333,9.67-14.594,14.567-21.788l1.415-2.075c4.881-7.148,9.802-14.233,14.758-21.255l0.923-1.313
		c5.166-7.3,10.37-14.535,15.61-21.708l1.067-1.453c5.022-6.861,10.08-13.669,15.163-20.423l1.401-1.86
		c5.23-6.931,10.487-13.811,15.774-20.637l0.458-0.595c5.385-6.947,10.798-13.841,16.233-20.69l1.422-1.787
		c5.139-6.463,10.298-12.886,15.473-19.271l1.402-1.73c5.469-6.735,10.954-13.432,16.456-20.089l0.117-0.142l0.14-0.169
		c5.482-6.63,10.978-13.219,16.486-19.78l1.653-1.967c5.274-6.274,10.557-12.523,15.847-18.745l1.023-1.203
		c5.526-6.495,11.055-12.964,16.59-19.411l1.367-1.591c5.173-6.023,10.349-12.027,15.523-18.017l2.519-2.915
		c4.862-5.622,9.722-11.235,14.577-16.835l1.304-1.506l1.411-1.626l7.384-8.513l7.376-8.504l1.235-1.424l0.375-0.434
		c5.3-6.111,10.589-12.215,15.867-18.318l1.782-2.061c5.439-6.29,10.866-12.582,16.276-18.875l0.419-0.488
		c5.587-6.501,11.153-13.006,16.7-19.519l0.767-0.9c5.28-6.205,10.541-12.42,15.777-18.644l1.36-1.618
		c10.878-12.946,21.652-25.949,32.289-39.045l1.382-1.706c4.987-6.152,9.945-12.326,14.869-18.524l1.312-1.65
		c5.213-6.574,10.391-13.174,15.523-19.812l0.36-0.469c5.041-6.523,10.038-13.08,14.993-19.672l1.396-1.861
		c4.754-6.341,9.465-12.717,14.134-19.13l1.168-1.602L960.178,628.292z"/>
	<path style="fill-rule:evenodd;clip-rule:evenodd;fill:#E5E5E5;" d="M3000,0C2950,1724.999-140,1064.999,468.11,2588.193
		c-128.862-315.82-159.23-648.838-116.704-922.265C482.507,902.311,1530.605,973.666,1569.167,0H3000z"/>
	<path style="fill-rule:evenodd;clip-rule:evenodd;fill:#DDDDDD;" d="M333.664,1876.535c1.29-73.025,7.322-143.608,17.742-210.607
		C482.507,902.311,1530.605,973.666,1569.167,0h671.025c-3.304,13.58-6.564,27.163-10.073,40.73
		C2178.046,1135.152,505.753,1102.854,333.664,1876.535z"/>
	
		<linearGradient id="SVGID_00000170993238930585052860000018277522796302409901_" gradientUnits="userSpaceOnUse" x1="-1959.7898" y1="1775.4713" x2="1850.2504" y2="4810.5039">
		<stop  offset="0" style="stop-color:#563996"/>
		<stop  offset="0.0244" style="stop-color:#5A3C97"/>
		<stop  offset="0.3374" style="stop-color:#885FA8"/>
		<stop  offset="0.6155" style="stop-color:#A979B5"/>
		<stop  offset="0.8459" style="stop-color:#BE88BC"/>
		<stop  offset="1" style="stop-color:#C58EBF"/>
	</linearGradient>
	<path style="fill-rule:evenodd;clip-rule:evenodd;fill:url(#SVGID_00000170993238930585052860000018277522796302409901_);" d="
		M0.001,2825.347c131.815,278.939,335.321,540.573,624.975,741.527C902.983,3759.75,1260.352,3896.723,1665.561,4000H0.001V2825.347
		z"/>
	
		<linearGradient id="SVGID_00000139254648729405507940000003581879401322116798_" gradientUnits="userSpaceOnUse" x1="-298.9216" y1="-193.8368" x2="999.0443" y2="1334.6699">
		<stop  offset="0" style="stop-color:#563996"/>
		<stop  offset="0.5568" style="stop-color:#966AAE"/>
		<stop  offset="1" style="stop-color:#C58EBF"/>
	</linearGradient>
	<path style="fill-rule:evenodd;clip-rule:evenodd;fill:url(#SVGID_00000139254648729405507940000003581879401322116798_);" d="
		M303.295,774.249c-6.48,7.47-12.967,14.957-19.454,22.462c-0.945,1.092-1.89,2.185-2.835,3.28
		c-5.822,6.737-11.645,13.493-17.464,20.268c-0.513,0.598-1.025,1.193-1.539,1.789c-6.226,7.255-12.449,14.53-18.664,21.836
		c-0.384,0.451-0.768,0.902-1.152,1.354c-5.949,7-11.895,14.028-17.827,21.086c-0.62,0.738-1.24,1.475-1.859,2.215
		c-6.248,7.443-12.483,14.925-18.702,22.445l-0.132,0.16c-6.19,7.489-12.362,15.024-18.517,22.597
		c-0.527,0.648-1.053,1.297-1.578,1.945c-5.825,7.183-11.629,14.41-17.41,21.68c-0.533,0.671-1.065,1.34-1.597,2.011
		c-6.115,7.705-12.202,15.464-18.26,23.281c-0.173,0.222-0.344,0.445-0.516,0.667c-5.948,7.68-11.866,15.417-17.75,23.215
		c-0.526,0.698-1.05,1.395-1.577,2.093c-5.719,7.598-11.405,15.255-17.058,22.975c-0.398,0.545-0.798,1.091-1.195,1.637
		c-5.895,8.069-11.75,16.208-17.561,24.422c-0.348,0.49-0.695,0.981-1.043,1.474c-5.577,7.901-11.114,15.868-16.605,23.912
		c-0.53,0.777-1.062,1.555-1.592,2.335c-5.509,8.093-10.971,16.262-16.384,24.511c-0.299,0.456-0.599,0.912-0.898,1.367
		c-5.604,8.56-11.157,17.206-16.653,25.944c-0.392,0.625-0.785,1.251-1.176,1.877c-5.226,8.332-10.397,16.748-15.512,25.252
		c-0.498,0.829-0.995,1.657-1.49,2.486c-5.26,8.779-10.46,17.652-15.593,26.625c-0.167,0.289-0.333,0.58-0.505,0.863
		c-0.111,0.2-0.221,0.399-0.331,0.599c-0.957,1.677-1.912,3.357-2.864,5.04V0H733.34c-0.323,2.028-0.653,4.051-0.986,6.07
		l-0.058,0.351c-1.903,11.493-3.959,22.821-6.141,34.012l-0.33,1.721c-2.151,10.952-4.44,21.753-6.847,32.426l-0.47,2.081
		c-2.412,10.599-4.95,21.064-7.609,31.397l-0.531,2.046c-2.7,10.415-5.517,20.703-8.457,30.861l-0.346,1.176
		c-2.996,10.305-6.111,20.488-9.35,30.538l-0.155,0.487c-3.233,10.018-6.59,19.902-10.051,29.676l-0.57,1.618
		c-3.401,9.553-6.912,18.988-10.523,28.322l-0.777,2.004c-3.614,9.288-7.33,18.469-11.144,27.549l-0.757,1.79
		c-3.878,9.185-7.851,18.272-11.927,27.255l-0.445,0.971c-4.13,9.078-8.354,18.055-12.673,26.936l-0.302,0.626
		c-4.322,8.868-8.746,17.634-13.251,26.32l-0.72,1.397c-4.442,8.536-8.975,16.981-13.584,25.349l-0.917,1.66
		c-4.599,8.321-9.28,16.564-14.04,24.731l-0.906,1.55c-4.842,8.283-9.761,16.494-14.755,24.628l-0.365,0.592
		c-5.036,8.191-10.149,16.305-15.331,24.357l-0.515,0.803c-5.151,7.989-10.375,15.907-15.66,23.769l-0.907,1.352
		c-5.22,7.749-10.508,15.435-15.849,23.073l-1.096,1.564c-4.884,6.966-9.814,13.892-14.796,20.772l-1.316,1.806l-1.315,1.802
		c-5.252,7.216-10.552,14.387-15.901,21.521l-1.57,2.095c-5.575,7.417-11.195,14.792-16.867,22.13l-0.405,0.528
		c-5.775,7.467-11.6,14.893-17.464,22.288l-1.476,1.855c-5.539,6.975-11.117,13.92-16.728,20.841l-1.554,1.919
		c-11.967,14.732-24.086,29.36-36.325,43.925l-1.53,1.82c-5.89,7.001-11.809,13.992-17.748,20.974l-0.863,1.013
		c-6.24,7.328-12.502,14.645-18.788,21.959l-0.47,0.549c-6.086,7.078-12.192,14.158-18.31,21.235l-2.005,2.317
		c-5.938,6.866-11.888,13.733-17.851,20.608l-0.423,0.488l-1.389,1.602l-5.676,6.543c-0.873,1.008-1.747,2.016-2.622,3.024
		C308.835,767.861,306.066,771.054,303.295,774.249z"/>
</g>
</svg>
